<?xml version="1.0" encoding="utf-8"?>
<svg version="1.1" xmlns="http://www.w3.org/2000/svg" xmlns:xlink="http://www.w3.org/1999/xlink" x="0px" y="0px"
	 width="152px" height="152px" viewBox="0 0 152 152" style="enable-background:new 0 0 152 152;" xml:space="preserve">
<style type="text/css">
	.st0{fill:#5EA318;}
	.st1{fill:#1A1A1A;}
</style>
	<rect y="120" class="st0" width="32" height="32"/>
	<rect y="80" class="st0" width="32" height="32"/>
	<rect x="40" y="80" class="st0" width="32" height="32"/>
	<rect y="40" class="st0" width="32" height="32"/>
	<rect x="40" y="40" class="st0" width="32" height="32"/>
	<rect x="80" y="40" class="st0" width="32" height="32"/>
	<rect class="st0" width="32" height="32"/>
	<rect x="40" class="st0" width="32" height="32"/>
	<rect x="80" class="st0" width="32" height="32"/>
	<rect x="120" class="st0" width="32" height="32"/>
	<path class="st1" d="M76.7,91.2l1.4-10.8h28.4c-0.5,8.3-2.1,14.7-5,19.4c-4.8,7.7-13.7,12.4-23.4,12.4c-8.2,0-14.8-2.6-20-7.7
		c-5.1-5.2-7.7-12.1-7.7-20.7c0-9.4,2.9-17.3,8.7-23.5c5.9-6.2,13.2-9.3,22-9.3c10.7,0,18.6,4.6,23.6,13.9l-10.1,5.8
		c-3.5-5.3-8-8-13.5-8c-5.1,0-9.4,2-12.9,6.1c-3.5,4-5.2,8.9-5.2,14.7c0,5.1,1.5,9.1,4.4,12.3c2.9,3.1,6.7,4.7,11.4,4.7
		c7.3,0,11.5-3.1,13-9.3L76.7,91.2L76.7,91.2z"/>
</svg>
