<?xml version="1.0" encoding="utf-8"?>
<!-- Generator: Adobe Illustrator 23.0.0, SVG Export Plug-In . SVG Version: 6.00 Build 0)  -->
<svg version="1.1" id="Layer_1" xmlns="http://www.w3.org/2000/svg" xmlns:xlink="http://www.w3.org/1999/xlink" x="0px" y="0px"
	 width="450px" height="250px" viewBox="0 0 450 250" style="enable-background:new 0 0 450 250;" xml:space="preserve">
<style type="text/css">
	.st0{fill:#010202;}
	.st1{fill:#95BE3B;}
</style>
<path class="st0" d="M92.2,152.2l-3.6,23.6c-0.9,5.9-2.3,12-9.8,12c-7.5,0-6.8-6.4-5.9-12l3.6-23.6H65l-4.1,25
	c-0.9,5.7-1.6,11.3,2.3,15.7c3.2,3.6,8.8,5,14.1,5c5.2,0,11.3-1.4,15.7-5c5.2-4.3,6.1-10,7.3-15.7l4.1-25H92.2z"/>
<polygon class="st0" points="102.6,196.7 114.2,196.7 118.8,169.5 135.5,196.7 147.1,196.7 154.4,152.2 142.6,152.2 138.5,179.5 
	121.3,152.2 109.7,152.2 "/>
<path class="st0" d="M48.2,173.1c3.9-2,5.7-5.2,6.4-9.3c1.4-8.6-3.4-11.6-11.3-11.6H26.7l-7,44.5h17.9c8.2,0,16.6-2.9,18.1-12.5
	C56.6,178.1,54.6,173.8,48.2,173.1z M36.9,161.1h0.9c3.2,0,6.8,0.2,6.1,4.3c-0.7,3.9-3.9,4.3-7,4.3h-1.4L36.9,161.1z M43.9,183.1
	c-0.7,5-6.6,4.8-9.8,4.8h-1.6l1.6-9.5h1.1C39.1,178.3,44.8,177.9,43.9,183.1z"/>
<path class="st0" d="M177.1,152.2h-16.6l-7,44.5H170c12.2,0,24.3-9.8,26.1-22.2C198.1,162,189.5,152.2,177.1,152.2z M184.1,174.5
	c-1.4,8.6-7.9,12.5-14.7,12.5h-2.5l3.9-25h2.7C180.9,162,185.4,166.5,184.1,174.5z"/>
<path class="st0" d="M425.4,188.3c-1.1,0-2.5-0.5-3.2-1.6c-0.9-1.4-0.5-3.9-0.2-5.2l7-50.8l-11.1,0.9l-3.6,27.7
	c-0.5-1.8-0.9-2.9-1.6-3.6c-1.1-2-3.6-4.3-9.3-4.3c-5.9,0-8.8,2.5-10.4,8.2c-0.5,1.6-0.7,2.3-0.9,5l-2.5,20c0,1.1-0.2,2.3-0.2,3.6
	c0,5.2,2,7,4.1,7.9c2,0.9,3.9,0.9,4.5,0.9c7.5,0,10.9-5.2,12.2-7c-0.5,4.1,0.5,5.4,2.7,6.1c0.7,0.2,2,0.5,3.9,0.5
	c2.9,0,5.9-0.7,9.1-1.6l2.9-8.4C427.9,187.6,426.8,188.3,425.4,188.3z M413.6,165.6l-2.3,17.2c0,0.2-0.2,1.1-0.7,2.3
	c-0.9,2-3.2,3.4-5.4,3.4c-4.1,0-4.1-3.6-3.9-6.8l2.3-16.3c0.2-1.6,0.7-5.4,5.7-5.4C413.2,160,413.9,162.2,413.6,165.6z"/>
<path class="st0" d="M360.3,151.6l-11.1,1.1l-5.2,44.2l11.1-0.9l3.6-28.1c0-0.9,0.2-2.7,0.7-3.6c0.9-2,2.7-2.9,3.4-3.4
	c1.4-0.7,2.3-0.7,2.9-0.7c1.4,0,2.7,0.2,3.6,1.4c1.1,1.6,0.9,3.9,0.7,5.4l-2.9,21.1c0,0.7-0.2,1.8-0.2,3.4c0,1.6,0.2,2.3,0.7,2.9
	c0.5,0.7,1.4,1.1,2,1.6c2,0.9,3.9,0.9,4.8,0.9c2.3,0,3.9-0.2,7.9-1.6l3.9-8.2c-1.4,0.7-3.2,1.6-4.8,1.6c-3.2,0-2.7-2.5-2.5-4.8
	l3.2-21.1c0.2-1.6,0.2-2.3,0.2-3.2c0-3.4-0.9-7.7-9.1-7.7c-4.1,0-7.7,1.1-10.4,3.6c-1.4,1.4-2.7,3.2-3.2,3.6L360.3,151.6z"/>
<path class="st0" d="M321.6,186.7c-0.5-0.5-0.9-1.6-0.9-3.4c0-1.1,0-1.8,0.2-2.3c1.6-0.2,9.3-1.6,14.7-5.7c2.3-1.8,6.1-5.4,6.1-12.9
	c0-6.1-2.5-8.4-4.8-9.5c-3.4-1.6-7.7-1.4-8.8-1.4c-1.4,0-8.4-0.2-12.7,4.3c-2.7,2.9-3.6,7.3-4.1,11.8l-1.8,13.4
	c-0.2,2.5-0.5,4.3-0.5,5.4c0,2.7,0.5,4.1,0.9,5.2c0.5,0.7,1.1,1.8,2.9,2.9c3.6,2.5,8.2,2.5,9.3,2.5c5.4,0,11.8-1.4,12.9-1.6
	l4.1-10.7c-2,1.4-5.4,3.6-11.3,3.6C325.9,188.5,322.7,188.1,321.6,186.7z M322.5,166.8c0.2-1.8,0.5-4.1,1.8-5.4
	c0.7-0.9,1.6-0.9,2.9-0.9c2.7,0,3.4,0.9,3.4,3.9c0,2.3-0.7,4.5-0.9,5.2c-1.6,5-3.9,6.1-8.6,8.2L322.5,166.8z"/>
<path class="st0" d="M294.6,152.7l-0.2,6.8c-0.5-1.4-0.9-2.7-2-4.1c-2-2.3-5.9-3.9-9.1-3.9c-2,0-3.2,0.2-3.9,0.7
	c-0.7,0.2-2.3,0.9-3.6,2.7c-2,2.7-2.5,6.6-3.2,9.8c-1.8,11.3-2.3,16.1-2.3,22c0,2.7,0.2,5.4,1.8,7.9c1.6,2.3,4.1,3.2,6.8,3.2
	c2.3,0,6.6-0.9,10.2-5.2c0.5-0.7,1.1-1.6,1.6-2.3c-0.7,5.9-1.4,9.5-2.9,11.8c-1.6,2-3.9,3.2-6.6,3.2c-2.3,0-4.5-0.9-5.9-2.3
	c-0.5-0.5-1.1-1.6-1.6-2l-6.4,8.8c0.9,0.9,1.8,1.6,2.9,2.3c3.2,1.8,7.5,2.7,10.9,2.7c5.2,0,8.8-1.8,10.7-2.7
	c5.4-3.2,7.7-7.7,8.8-13.6c0.2-1.6,0.5-3.4,0.7-4.8l5-42L294.6,152.7z M293.4,167.4l-1.6,14.5c0,0.7-0.5,4.3-3.2,5.9
	c-0.5,0.2-1.1,0.7-2.5,0.7c-0.9,0-1.6,0-2-0.5c-1.8-0.9-2-2.3-1.8-5.9l1.8-15.9c0.5-3.4,1.4-5.9,5.2-5.9
	C293.9,160.2,293.7,164,293.4,167.4z"/>
<path class="st0" d="M242.4,151.8l-11.1,0.7l-4.1,32.9c-0.2,1.4-0.2,2.7-0.2,4.1c0,1.4,0.2,2.9,0.9,4.1c0.2,0.5,0.9,1.1,1.4,1.6
	c1.8,1.6,4.3,1.8,6.8,1.8c4.8,0,8.2-1.1,11.1-4.8c0.9-1.1,1.8-2.7,2-2.9c-0.2,0.9-0.2,1.6-0.2,2.3c0,1.4,0.5,2.5,1.4,3.4
	c1.1,1.1,2.7,2,6.1,2c3.9,0,7-0.9,8.4-1.4l3.6-7.9c-1.1,0.2-3.4,0.9-4.5,0.9c-3.6,0-3.4-2.7-2.9-5.4l4.3-31.5l-10.9,0.9l-4.1,29.5
	c-0.7,3.6-1.6,6.1-5.9,6.1c-1.8,0-3.6-0.5-4.3-1.8c-0.7-1.4-0.2-3.6-0.2-4.8L242.4,151.8z"/>
<path class="st0" d="M214,143.9c1.8,1.8,3.9,2,4.8,2c3.9,0,6.8-2.9,6.8-6.8c0-3.9-2.9-6.8-6.8-6.8c-3.9,0-6.8,2.9-6.8,6.8
	C212,139.8,212.2,142,214,143.9"/>
<polygon class="st0" points="223.1,151.8 211.8,153.2 203.8,214.2 214.9,212.8 "/>
<polygon class="st0" points="424.8,238.2 426.4,238.2 426.4,225.1 424.8,225.1 424.8,230.7 418.4,230.7 418.4,225.1 416.8,225.1 
	416.8,238.2 418.4,238.2 418.4,232.1 424.8,232.1 "/>
<polygon class="st0" points="408.9,225.1 399.1,225.1 399.1,226.4 403.2,226.4 403.2,238.2 404.8,238.2 404.8,226.4 408.9,226.4 "/>
<path class="st0" d="M388.9,233l-0.9-0.7c0.9-0.2,1.6-0.7,2.3-1.4c0.5-0.7,0.9-1.6,0.9-2.5c0-0.7-0.2-1.1-0.2-1.6
	c-0.2-0.5-0.5-0.9-0.9-1.1s-0.9-0.5-1.4-0.7c-0.5-0.2-1.1-0.2-1.6-0.2s-1.1,0-1.6,0c-0.7,0-1.1,0.2-1.6,0.2V238h1.6v-5.9l1.8,0.2
	l3.6,5.7h1.8L388.9,233z M386.4,231.2h-1.6v-4.8h0.2c0.2,0,0.2,0,0.5,0c0.2,0,0.2,0,0.5,0h0.5c0.9,0,1.6,0.2,2,0.7
	c0.5,0.5,0.7,0.9,0.7,1.6c0,0.9-0.2,1.6-0.9,2C388,231,387.3,231.2,386.4,231.2z"/>
<path class="st0" d="M370.3,224.8h-0.7l-5,13.4h1.6l1.4-3.6h4.8l1.4,3.6h1.6L370.3,224.8z M368.1,233.2l1.4-4.1l0.5-2l0,0l0.5,2
	l1.6,4.1H368.1L368.1,233.2z"/>
<polygon class="st0" points="349.5,238.2 356.7,238.2 356.7,236.9 351,236.9 351,232.1 356.3,232.1 356.3,230.7 351,230.7 
	351,226.4 356.7,226.4 356.7,225.1 349.5,225.1 "/>
<polygon class="st0" points="323.6,238.2 330.9,238.2 330.9,236.9 325.2,236.9 325.2,232.1 330.2,232.1 330.2,230.7 325.2,230.7 
	325.2,226.4 330.6,226.4 330.6,225.1 323.6,225.1 "/>
<polygon class="st0" points="312.7,238.2 314.3,238.2 314.3,225.1 312.7,225.1 312.7,230.7 306.6,230.7 306.6,225.1 305,225.1 
	305,238.2 306.6,238.2 306.6,232.1 312.7,232.1 "/>
<polygon class="st0" points="296.8,225.1 287.1,225.1 287.1,226.4 291.2,226.4 291.2,238.2 292.7,238.2 292.7,226.4 296.8,226.4 "/>
<polygon class="st0" points="262.8,238.2 264.4,238.2 264.4,232.3 269.6,232.3 269.6,231 264.4,231 264.4,226.4 269.8,226.4 
	269.8,225.1 262.8,225.1 "/>
<path class="st0" d="M253.7,228.9c-0.2-0.9-0.5-1.6-0.9-2.3c-0.5-0.7-0.9-1.1-1.6-1.4c-0.7-0.2-1.6-0.5-2.3-0.5
	c-1.6,0-2.9,0.7-4.1,1.8c-0.9,1.1-1.4,2.9-1.4,5c0,0.9,0.2,2,0.2,2.7c0.2,0.9,0.5,1.6,0.9,2.3c0.5,0.7,0.9,1.1,1.6,1.4
	s1.6,0.5,2.3,0.5c1.8,0,2.9-0.7,4.1-1.8c0.9-1.1,1.4-2.9,1.4-5C254,230.7,254,229.6,253.7,228.9z M251.5,235.7
	c-0.7,0.9-1.6,1.4-2.7,1.4c-0.7,0-1.1-0.2-1.6-0.5c-0.5-0.2-0.9-0.7-1.1-1.1s-0.5-1.1-0.7-1.6c-0.2-0.7-0.2-1.4-0.2-2
	c0-1.8,0.2-3.2,0.9-4.1s1.6-1.4,2.7-1.4c0.7,0,1.1,0.2,1.6,0.5c0.5,0.2,0.9,0.7,1.1,1.1s0.5,1.1,0.7,1.8c0.2,0.7,0.2,1.4,0.2,2
	C252.4,233.5,251.9,234.8,251.5,235.7z"/>
<path class="st0" d="M223.6,235.7c-0.2,0.2-0.2,0.5-0.7,0.7c-0.2,0.2-0.7,0.2-0.9,0.5c-0.2,0-0.7,0.2-1.1,0.2c-0.7,0-1.4,0-1.8-0.2
	s-0.9-0.2-1.4-0.5l-0.5,1.4c0.2,0.2,0.9,0.2,1.4,0.5c0.5,0.2,1.4,0.2,2.3,0.2c0.7,0,1.4,0,1.8-0.2s0.9-0.5,1.4-0.7
	c0.5-0.2,0.7-0.7,0.9-1.1c0.2-0.5,0.2-0.9,0.2-1.6c0-0.7-0.2-1.4-0.5-1.8s-0.7-0.9-1.1-1.1c-0.5-0.2-0.9-0.7-1.6-0.9
	c-0.5-0.2-1.1-0.5-1.6-0.7c-0.5-0.2-0.9-0.5-1.1-0.9c-0.2-0.2-0.5-0.7-0.5-1.1s0.2-0.9,0.7-1.4c0.5-0.5,0.9-0.5,1.8-0.5
	c0.7,0,1.4,0,1.8,0.2c0.5,0.2,0.9,0.2,1.4,0.5l0.5-1.4c-0.2-0.2-0.9-0.2-1.6-0.5c-0.7-0.2-1.4-0.2-2-0.2c-1.4,0-2.3,0.2-2.9,0.9
	c-0.7,0.7-1.1,1.4-1.1,2.5c0,0.7,0.2,1.4,0.5,1.8c0.2,0.5,0.7,0.9,1.1,1.1c0.5,0.2,0.9,0.7,1.6,0.9c0.5,0.2,1.1,0.5,1.6,0.7
	s0.9,0.5,1.1,0.9c0.2,0.2,0.5,0.7,0.5,1.4C224,235.3,223.8,235.5,223.6,235.7"/>
<path class="st0" d="M209,228.9c-0.2-0.9-0.7-1.6-1.1-2c-0.5-0.7-1.1-0.9-1.8-1.4c-0.7-0.2-1.6-0.5-2.7-0.5c-0.2,0-0.5,0-0.9,0
	c-0.5,0-0.7,0-0.9,0s-0.7,0-0.9,0c-0.2,0-0.5,0-0.9,0v13.2c0.2,0,0.2,0,0.7,0s0.7,0,0.9,0c0.2,0,0.7,0,0.9,0c0.2,0,0.7,0,0.9,0
	c1.1,0,2-0.2,2.9-0.5c0.9-0.5,1.4-0.9,2-1.6c0.5-0.7,0.9-1.4,1.1-2.3c0.2-0.9,0.2-1.6,0.2-2.5C209.5,230.5,209.3,229.6,209,228.9z
	 M207.5,233.7c-0.2,0.7-0.5,1.1-0.7,1.8c-0.2,0.5-0.9,0.9-1.4,1.1c-0.7,0.2-1.4,0.5-2.3,0.5h-0.2c-0.2,0-0.2,0-0.5,0
	c-0.2,0-0.2,0-0.5,0s-0.2,0-0.2,0v-10.4h0.2c0.2,0,0.2,0,0.5,0c0.2,0,0.5,0,0.5,0h0.5c0.9,0,1.6,0.2,2.3,0.5
	c0.5,0.2,0.9,0.7,1.4,1.1c0.2,0.5,0.7,1.1,0.7,1.6c0.2,0.7,0.2,1.1,0.2,1.8C207.9,232.3,207.7,233,207.5,233.7z"/>
<polygon class="st0" points="189.8,238.4 190.7,238.4 190.7,225.1 189.1,225.1 189.1,233.7 189.3,235.5 189.3,235.5 188.2,233.7 
	182,224.8 181.1,224.8 181.1,238.2 182.7,238.2 182.7,229.6 182.5,227.8 182.5,227.8 183.4,229.6 "/>
<polygon class="st0" points="165.3,238.2 172.5,238.2 172.5,236.9 166.8,236.9 166.8,232.1 172.1,232.1 172.1,230.7 166.8,230.7 
	166.8,226.4 172.5,226.4 172.5,225.1 165.3,225.1 "/>
<rect x="154.4" y="225.1" class="st0" width="1.6" height="13.2"/>
<path class="st0" d="M142.6,233l-0.9-0.7c0.9-0.2,1.6-0.7,2.3-1.4c0.5-0.7,0.9-1.6,0.9-2.5c0-0.7-0.2-1.1-0.2-1.6
	c-0.2-0.5-0.5-0.9-0.9-1.1c-0.5-0.2-0.9-0.5-1.4-0.7c-0.5-0.2-1.1-0.2-1.6-0.2s-1.1,0-1.6,0c-0.7,0-1.1,0.2-1.6,0.2V238h1.6v-5.9
	l1.8,0.2l3.6,5.7h1.8L142.6,233z M140.1,231.2h-1.6v-4.8h0.2c0,0,0.2,0,0.5,0s0.2,0,0.5,0h0.5c0.9,0,1.6,0.2,2,0.7
	c0.5,0.5,0.7,0.9,0.7,1.6c0,0.9-0.2,1.6-0.9,2C141.7,231,141,231.2,140.1,231.2z"/>
<polygon class="st0" points="121.5,238.2 123.1,238.2 123.1,232.3 128.3,232.3 128.3,231 123.1,231 123.1,226.4 128.5,226.4 
	128.5,225.1 121.5,225.1 "/>
<path class="st0" d="M98.6,232.6l2.9,0.5v3.6c-0.5,0.2-1.1,0.5-2,0.5c-0.7,0-1.1-0.2-1.8-0.2s-0.9-0.5-1.4-0.9
	c-0.5-0.5-0.7-0.9-0.9-1.6c-0.2-0.7-0.2-1.6-0.2-2.3c0-0.9,0.2-1.8,0.5-2.5c0.2-0.7,0.7-1.1,0.9-1.6c0.5-0.5,0.9-0.7,1.4-0.9
	c0.5-0.2,0.9-0.2,1.6-0.2c1.1,0,2,0.2,2.5,0.5l0.5-1.4c-0.2-0.2-0.7-0.2-1.1-0.2s-1.1-0.2-1.8-0.2c-0.7,0-1.4,0.2-2,0.5
	c-0.7,0.2-1.4,0.7-1.8,1.1c-0.5,0.5-0.9,1.1-1.4,2c-0.2,0.9-0.5,1.8-0.5,3.2c0,1.1,0.2,2.3,0.5,2.9c0.2,0.9,0.7,1.6,1.1,2
	c0.5,0.5,1.1,0.9,1.8,1.1c0.7,0.2,1.6,0.5,2.3,0.5c0.2,0,0.7,0,0.9,0s0.7-0.2,0.9-0.2s0.7-0.2,0.9-0.2s0.5-0.2,0.7-0.5v-5.7h-4.3
	L98.6,232.6L98.6,232.6z"/>
<polygon class="st0" points="84,238.4 85,238.4 85,225.1 83.4,225.1 83.4,233.7 83.6,235.5 83.6,235.5 82.5,233.7 76.1,224.8 
	75.4,224.8 75.4,238.2 76.8,238.2 76.8,229.6 76.8,227.8 76.8,227.8 77.7,229.6 "/>
<path class="st0" d="M64.8,233.5c0,1.4-0.2,2.3-0.7,2.7c-0.5,0.5-1.1,0.9-2.3,0.9c-0.5,0-0.9,0-1.4-0.2c-0.5-0.2-0.7-0.2-0.9-0.7
	c-0.2-0.2-0.5-0.7-0.7-1.1c-0.2-0.5-0.2-0.9-0.2-1.6v-8.4h-1.6v9.1c0,1.4,0.5,2.5,1.1,3.2c0.9,0.7,2,1.1,3.6,1.1
	c0.7,0,1.1,0,1.8-0.2c0.5-0.2,0.9-0.5,1.4-0.9c0.5-0.2,0.7-0.9,0.9-1.4c0.2-0.5,0.2-1.4,0.2-2v-8.6h-1.6L64.8,233.5L64.8,233.5z"/>
<path class="st0" d="M48.2,228.9c-0.2-0.9-0.5-1.6-0.9-2.3c-0.5-0.7-0.9-1.1-1.6-1.4c-0.7-0.2-1.6-0.5-2.3-0.5
	c-1.6,0-2.9,0.7-4.1,1.8c-0.9,1.1-1.4,2.9-1.4,5c0,0.9,0.2,2,0.2,2.7c0.2,0.9,0.5,1.6,0.9,2.3c0.5,0.7,0.9,1.1,1.6,1.4
	c0.7,0.2,1.6,0.5,2.3,0.5c1.8,0,2.9-0.7,4.1-1.8c0.9-1.1,1.4-2.9,1.4-5C48.4,230.7,48.4,229.6,48.2,228.9z M45.9,235.7
	c-0.7,0.9-1.6,1.4-2.7,1.4c-0.7,0-1.1-0.2-1.6-0.5s-0.9-0.7-1.1-1.1s-0.5-1.1-0.7-1.6c-0.2-0.7-0.2-1.4-0.2-2c0-1.8,0.2-3.2,0.9-4.1
	s1.6-1.4,2.7-1.4c0.7,0,1.1,0.2,1.6,0.5c0.5,0.2,0.9,0.7,1.1,1.1s0.5,1.1,0.7,1.8c0.2,0.7,0.2,1.4,0.2,2
	C46.8,233.5,46.4,234.8,45.9,235.7z"/>
<polygon class="st0" points="25.1,238.2 26.7,238.2 26.7,233 31,225.1 29.4,225.1 26.4,230.7 26,231.9 26,231.9 25.8,230.7 
	22.6,225.1 20.8,225.1 25.1,233 "/>
<path class="st1" d="M193.2,100.3c2,0,5.2,1.6,7.5,2.5c2.3,0.9,7.9,3.6,7.9,3.6s-14.3-8.6-15.2-9.1c-0.7-0.5-3.4-1.8-3.6-3.9
	c0-2,1.8-2.3,4.3-2.3c2.5,0.2,10,3.4,11.3,4.1c1.4,0.7,4.1,2.3,4.1,2.3s1.4,0.2,2.5,0.2c1.1,0,5.4,0.7,5.4,0.7s-4.5-1.8-5.2-2
	c-0.7-0.2-5.4-4.1-6.4-4.5c-0.9-0.5-7.3-4.8-8.6-5.7c-0.7-0.5-2-2.3-2-3.6c0-0.2,0.9-2.3,2.9-2c3.6,0.5,8.6,3.2,9.8,3.6
	c1.8,0.5,7.3,3.6,7.7,3.9s8.6,2.5,10.2,2.5c1.6,0,4.8-1.1,5.9-2c1.1-0.9,2-0.9,2.9-3.4c0.9-2.5-1.6-7-2.9-9.8
	c-1.6-2.7-1.1-10.2,0.2-12s3.6,0.7,3.9,1.6c0.2,0.9,2.9,4.1,3.9,5.2c0.7,1.1,2.3,3.9,2.9,4.8c0.9,0.9,2.9,3.4,4.5,5.4
	c1.6,2,3.4,7.5,5.4,7.9c2,0.5,10.2-8.6,13.4-11.3c1.8-2.3,4.1-6.1,6.1-10c0.9-17-7.3-32.7-20.4-42.2c-0.9,0.5-1.8,0.5-1.8,0.5
	s2.7,1.6,3.4,2.3c0.7,0.9,0.9,1.8,0.7,2.7c-0.2,0.9-1.4,1.6-1.4,1.6s2,2,0.2,3.6c-1.6,1.8-2.9,1.8-2.9,1.8l-4.5-0.7
	c0,0,0.5,2-1.1,3.2c-1.6,1.1-7.9,2-10.4,1.8c-2.5-0.2-5.7-0.2-8.4-0.5c-2.7-0.2-6.1-0.5-6.1-0.5s-14.3,5.4-17.7,5.7
	c-3.4,0.2-6.4-1.8-8.2-0.9c-1.6,0.9-7.5,10.2-10.4,13.8c-1.4,2-4.5,7.9-8.2,13.6c1.8,10.9,7.5,20.6,15.4,27.7
	C191.1,100.8,192,100.3,193.2,100.3z"/>
<path class="st0" d="M193.6,46.1c1.6-0.9,4.8,1.1,8.2,0.9c3.4-0.2,17.7-5.7,17.7-5.7s3.4,0.2,6.1,0.5c2.7,0.2,5.9,0.5,8.4,0.5
	c2.5,0.2,8.8-0.7,10.4-1.8c1.6-1.1,1.1-3.2,1.1-3.2l4.5,0.7c0,0,1.1-0.2,2.9-1.8c1.6-1.8-0.2-3.6-0.2-3.6s1.4-0.7,1.4-1.6
	c0.2-0.9,0-1.8-0.7-2.7c-0.7-0.9-3.4-2.3-3.4-2.3s0.9,0,1.8-0.5c0.5-0.2,0.7-0.7,0.9-1.1c0.5-1.8-2-3.4-2.9-4.1
	c-0.9-0.7-4.8-1.8-6.1-3.2c-1.6-1.4-5-2.5-5.7-3.2c-0.9-0.5-2.3-0.7-4.3-1.6c-2.3-0.9-4.1-1.6-4.1-1.6s-4.5-2-7.7-3.6
	c-2-0.9-7.3-1.1-8.6,0.9c-1.6,2-6.8,4.1-8.6,5.2c-1.8,1.1-5.7,4.8-8.6,7.3c-2.9,2.5-8.8,5-10.7,5.7c-1.6,0.9-8.2,5.2-11.1,7.7
	c-2.9,2.5-12.5,11.3-15.9,13.8c-3.4,2.5-12.7,9.5-16.6,11.8s-6.8,8.2-7.7,10.7c-0.9,2.7-1.1,3.6-1.6,6.8c0.2,3.2-0.5,6.1-0.9,9.1
	c-0.5,2.9,2,5,4.3,7.7c2.3,2.7,6.6,4.5,8.8,4.3c2.3-0.2,6.4-3.2,9.3-5.7c2.9-2.5,5.2-2.3,11.8-6.8c2.9-2.3,6.6-7,9.8-12
	c3.6-5.7,6.8-11.6,8.2-13.6C186.1,56.3,192,47,193.6,46.1z"/>
<path class="st0" d="M310,66c-0.7-2.9-4.1-3.4-5.9-4.8c-2.5-2-6.4-5.7-10.4-6.1c-6.8-1.1-13.2,1.4-16.8,5c-1.6,1.6-3.2,4.3-4.8,7.3
	c-2.3,3.9-4.3,7.9-6.1,10c-2.9,2.7-11.1,11.6-13.4,11.3c-2.3-0.2-4.1-5.9-5.4-7.9c-1.6-2-3.6-4.8-4.5-5.4c-0.9-0.9-2.3-3.4-2.9-4.8
	c-0.7-1.1-3.4-4.5-3.9-5.2c-0.5-0.7-2.5-3.4-3.9-1.6c-1.4,1.8-1.8,9.3-0.2,12c1.6,2.7,3.9,7.3,2.9,9.8s-1.8,2.5-2.9,3.4
	c-1.1,0.9-4.3,2-5.9,2c-1.6,0-9.8-2.3-10.2-2.5c-0.5-0.2-6.1-3.2-7.7-3.9c-1.1-0.2-5.9-3.2-9.8-3.6c-2-0.2-2.9,1.6-2.9,2
	c0,1.4,1.1,3.2,2,3.6c1.1,0.9,7.7,5.2,8.6,5.7c0.9,0.5,5.7,4.1,6.4,4.5c0.7,0.2,5.2,2,5.2,2s-4.5-0.7-5.4-0.7
	c-0.9,0-2.5-0.2-2.5-0.2s-2.7-1.6-4.1-2.3c-1.4-0.7-8.8-3.9-11.3-4.1c-2.5-0.2-4.3,0-4.3,2.3c0,2,2.9,3.6,3.6,3.9
	c0.7,0.5,15.2,9.1,15.2,9.1s-5.7-2.7-7.9-3.6c-2.3-0.9-5.4-2.5-7.5-2.5c-1.1,0-2.3,0.5-2.7,1.1c-0.5,0.5-0.5,0.9-0.2,1.6
	c0.7,1.4,5.4,3.9,7,4.8c1.6,0.9,9.5,5.9,11.1,6.1c1.6,0.2,11.3,0.5,12.9,0.7c1.8,0,12.5,0,15.7-0.5c3.4-0.7,7.5-1.6,7.5-1.6
	s3.6-0.9,4.1-0.9c1.6-0.5,8.2-1.6,10-2.3c1.8-0.7,19.7-7.5,22.9-9.8c3.2-2.3,13.8-10.2,15.7-12c1.8-1.8,8.6-8.4,10-13.8
	C307.7,71.3,310.7,69,310,66z"/>
</svg>
