<?xml version="1.0" encoding="utf-8"?>
<!-- Generator: Adobe Illustrator 23.0.0, SVG Export Plug-In . SVG Version: 6.00 Build 0)  -->
<svg version="1.1" xmlns="http://www.w3.org/2000/svg" xmlns:xlink="http://www.w3.org/1999/xlink" x="0px" y="0px"
	 viewBox="0 0 356.4 181.1" style="enable-background:new 0 0 356.4 181.1;" xml:space="preserve">
<style type="text/css">
	.st0{fill:#5EA318;}
	.st1{fill:#1A1A1A;}
</style>
<rect y="120" class="st0" width="32" height="32"/>
<rect y="80" class="st0" width="32" height="32"/>
<rect x="40" y="80" class="st0" width="32" height="32"/>
<rect y="40" class="st0" width="32" height="32"/>
<rect x="40" y="40" class="st0" width="32" height="32"/>
<rect x="80" y="40" class="st0" width="32" height="32"/>
<rect class="st0" width="32" height="32"/>
<rect x="40" class="st0" width="32" height="32"/>
<rect x="80" class="st0" width="32" height="32"/>
<rect x="120" class="st0" width="32" height="32"/>
<g>
	<path class="st1" d="M76.7,91.2l1.4-10.8h28.4c-0.5,8.3-2.1,14.7-5,19.4c-4.8,7.7-13.7,12.4-23.4,12.4c-8.2,0-14.8-2.6-20-7.7
		c-5.1-5.2-7.7-12.1-7.7-20.7c0-9.4,2.9-17.3,8.7-23.5c5.9-6.2,13.2-9.3,22-9.3c10.7,0,18.6,4.6,23.6,13.9l-10.1,5.8
		c-3.5-5.3-8-8-13.5-8c-5.1,0-9.4,2-12.9,6.1c-3.5,4-5.2,8.9-5.2,14.7c0,5.1,1.5,9.1,4.4,12.3c2.9,3.1,6.7,4.7,11.4,4.7
		c7.3,0,11.5-3.1,13-9.3L76.7,91.2L76.7,91.2z"/>
	<path class="st1" d="M123.1,111h-11.8l7.3-58.8H133c7.6,0,12.9,1.2,15.8,3.7c3.2,2.7,4.8,6.8,4.8,12.1c0,9.9-5.1,16.4-14.2,18
		l14.7,25h-13.7L126,86.7L123.1,111z M129,63l-2,15.8h3.7c6.9,0,10.3-3.1,10.3-9.3c0-2.4-0.6-4.1-1.8-5c-1.2-1-3.3-1.5-6.2-1.5H129z
		"/>
	<path class="st1" d="M165.8,52.2h11.7l-4,32.5c-0.4,3.1-0.6,5.4-0.6,6.9c0,5.9,3.3,8.9,9.9,8.9c4,0,6.8-1.1,8.5-3.4
		c1.8-2.3,3-6.5,3.8-12.7l3.9-32.2h11.8l-4.2,34.6c-1,8.5-2.8,14.4-5.2,17.6c-4,5.2-10.4,7.8-19.3,7.8c-13.7,0-21.1-6.1-21.1-17.3
		c0-2.3,0.2-5.4,0.7-9.4L165.8,52.2z M187.2,41c0.3,5.3-7,8.3-10.5,4.4c-1.2-1.3-1.8-2.8-1.8-4.4c0-1.6,0.6-3,1.8-4.4
		c2.6-2.4,6.3-2.4,8.7,0.1C186.6,38,187.2,39.4,187.2,41z M202.5,36.7c1.2,1.3,1.8,2.7,1.8,4.4s-0.6,3.2-1.9,4.4
		c-1.2,1.2-2.7,1.8-4.3,1.8c-3.4,0-6.2-2.7-6.2-6.2c0-1.7,0.6-3.2,1.8-4.4c1.3-1.2,2.8-1.8,4.4-1.8
		C199.9,34.8,201.3,35.4,202.5,36.7z"/>
	<path class="st1" d="M226.7,111h-11.8l7.3-58.8h11.9l20.1,33.5c1.9,3,3.2,6.2,4.1,9.3l0.7-0.2c-0.2-1.5-0.3-3-0.3-4.5
		s0.2-3.4,0.4-5.9l4-32.1h11.8l-7.4,58.7h-11.8l-19.6-32.2c-2.5-4.2-4.1-7.6-4.8-10.2l-0.6,0.1c0.2,2.2,0.4,3.7,0.4,4.8
		c0,0.4-0.1,1.6-0.3,3.7L226.7,111z"/>
	<path class="st1" d="M309.7,111h-30.5l7.3-58.8H317L315.6,63H297l-1.6,13h18l-1.3,10.8h-18l-1.6,13.3h18.7L309.7,111z"/>
	<path class="st1" d="M322,96.6c4.4,2.6,8.4,3.8,11.9,3.8c4.3,0,7.3-2.5,7.3-6.3c0-1.4-0.4-2.6-1.2-3.4c-0.7-0.9-2.7-2.4-5.8-4.7
		c-5.5-3.9-8.9-6.9-10.3-8.8c-1.4-2-2.1-4.7-2.1-8c0-5.1,1.8-9.4,5.5-12.9s8.1-5.2,13.4-5.2c5.8,0,11.1,1.7,15.7,5.1l-5.3,10.5
		c-3.7-2.6-7.3-3.9-10.5-3.9c-3.7,0-6.2,2.1-6.2,5.3c0,1.3,0.4,2.5,1.2,3.4c0.9,0.9,2.8,2.3,5.8,4.2c4.8,2.9,8,5.6,9.7,8
		s2.6,5.5,2.6,9c0,5.5-1.9,10.1-5.8,13.9s-8.8,5.6-14.7,5.6c-2.9,0-5.5-0.4-7.9-1.1c-2.3-0.7-5.5-2.3-9.6-4.5L322,96.6z"/>
	<path class="st1" d="M49.9,181l7.3-58.8h13c7.6,0,12.9,1.2,16.1,3.5c3.1,2.3,4.7,5.9,4.7,10.9c0,7.2-3.5,11.7-10.5,13.7
		c9,1.9,12.2,5.5,12.2,13.3c0,3.4-0.8,6.3-2.3,9c-1.8,3.1-4.4,5.3-7.7,6.6c-3.3,1.2-8.4,1.9-15.4,1.9H49.9V181z M64.8,156l-1.9,15.1
		h5c5,0,8.3-0.9,9.9-2.7c1.3-1.4,2-3.3,2-5.7c0-5.1-2.7-6.7-10.8-6.7L64.8,156L64.8,156z M67.7,132.2l-1.8,14.6h2.9
		c7.8,0,10.6-2.7,10.6-8.3c0-4.7-2.2-6.3-8.7-6.3L67.7,132.2L67.7,132.2z"/>
	<path class="st1" d="M110.2,181H98.5l7.3-58.8h14.4c7.6,0,12.9,1.2,15.8,3.7c3.2,2.7,4.8,6.8,4.8,12.1c0,9.9-5.1,16.4-14.2,18
		l14.7,25h-13.7l-14.4-24.3L110.2,181z M116.2,133l-1.9,15.8h3.7c6.9,0,10.3-3.1,10.3-9.3c0-2.4-0.6-4.1-1.8-5
		c-1.2-1-3.3-1.5-6.2-1.5H116.2z"/>
	<path class="st1" d="M177.8,181h-30.5l7.3-58.8h30.5l-1.4,10.8h-18.6l-1.6,13h18l-1.3,10.8h-18l-1.6,13.3h18.7L177.8,181z"/>
	<path class="st1" d="M206.2,181h-11.8l5.9-48h-12.1l1.3-10.8h35.1l-1.4,10.8H212L206.2,181z"/>
	<path class="st1" d="M244.3,181h-11.8l5.9-48h-12.1l1.3-10.8h35.1l-1.4,10.8h-11.2L244.3,181z"/>
</g>
</svg>
