<?xml version="1.0" encoding="utf-8"?>
<!-- Generator: Adobe Illustrator 18.0.0, SVG Export Plug-In . SVG Version: 6.00 Build 0)  -->
<svg version="1.2" baseProfile="tiny" xmlns="http://www.w3.org/2000/svg" xmlns:xlink="http://www.w3.org/1999/xlink" x="0px"
	 y="0px" width="512px" height="512px" viewBox="0 0 512 512" xml:space="preserve">
<g>
	<rect x="77.5" y="275" fill="#5EA318" width="32" height="32"/>
	<rect x="77.5" y="235" fill="#5EA318" width="32" height="32"/>
	<rect x="117.5" y="235" fill="#5EA318" width="32" height="32"/>
	<rect x="77.5" y="195" fill="#5EA318" width="32" height="32"/>
	<rect x="117.5" y="195" fill="#5EA318" width="32" height="32"/>
	<rect x="157.5" y="195" fill="#5EA318" width="32" height="32"/>
	<rect x="77.5" y="155" fill="#5EA318" width="32" height="32"/>
	<rect x="117.5" y="155" fill="#5EA318" width="32" height="32"/>
	<rect x="157.5" y="155" fill="#5EA318" width="32" height="32"/>
	<rect x="197.5" y="155" fill="#5EA318" width="32" height="32"/>
	<g>
		<path fill="#1A1A1A" d="M154.2,246.2l1.4-10.8H184c-0.5,8.3-2.1,14.7-5,19.4c-4.8,7.7-13.7,12.4-23.4,12.4c-8.2,0-14.8-2.6-20-7.7
			c-5.1-5.2-7.7-12.1-7.7-20.7c0-9.4,2.9-17.3,8.7-23.5c5.9-6.2,13.2-9.3,22-9.3c10.7,0,18.6,4.6,23.6,13.9l-10.1,5.8
			c-3.5-5.3-8-8-13.5-8c-5.1,0-9.4,2-12.9,6.1c-3.5,4-5.2,8.9-5.2,14.7c0,5.1,1.5,9.1,4.4,12.3c2.9,3.1,6.7,4.7,11.4,4.7
			c7.3,0,11.5-3.1,13-9.3H154.2z"/>
		<path fill="#1A1A1A" d="M200.6,266h-11.8l7.3-58.8h14.4c7.6,0,12.9,1.2,15.8,3.7c3.2,2.7,4.8,6.8,4.8,12.1c0,9.9-5.1,16.4-14.2,18
			l14.7,25h-13.7l-14.4-24.3L200.6,266z M206.5,218l-2,15.8h3.7c6.9,0,10.3-3.1,10.3-9.3c0-2.4-0.6-4.1-1.8-5
			c-1.2-1-3.3-1.5-6.2-1.5H206.5z"/>
		<path fill="#1A1A1A" d="M243.3,207.2H255l-4,32.5c-0.4,3.1-0.6,5.4-0.6,6.9c0,5.9,3.3,8.9,9.9,8.9c4,0,6.8-1.1,8.5-3.4
			c1.8-2.3,3-6.5,3.8-12.7l3.9-32.2h11.8l-4.2,34.6c-1,8.5-2.8,14.4-5.2,17.6c-4,5.2-10.4,7.8-19.3,7.8c-13.7,0-21.1-6.1-21.1-17.3
			c0-2.3,0.2-5.4,0.7-9.4L243.3,207.2z M264.7,196c0.3,5.3-7,8.3-10.5,4.4c-1.2-1.3-1.8-2.8-1.8-4.4c0-1.6,0.6-3,1.8-4.4
			c2.6-2.4,6.3-2.4,8.7,0.1C264.1,193,264.7,194.4,264.7,196z M280,191.7c1.2,1.3,1.8,2.7,1.8,4.4c0,1.7-0.6,3.2-1.9,4.4
			c-1.2,1.2-2.7,1.8-4.3,1.8c-3.4,0-6.2-2.7-6.2-6.2c0-1.7,0.6-3.2,1.8-4.4c1.3-1.2,2.8-1.8,4.4-1.8
			C277.4,189.8,278.8,190.4,280,191.7z"/>
		<path fill="#1A1A1A" d="M304.2,266h-11.8l7.3-58.8h11.9l20.1,33.5c1.9,3,3.2,6.2,4.1,9.3l0.7-0.2c-0.2-1.5-0.3-3-0.3-4.5
			c0-1.5,0.2-3.4,0.4-5.9l4-32.1h11.8L345,266h-11.8l-19.6-32.2c-2.5-4.2-4.1-7.6-4.8-10.2l-0.6,0.1c0.2,2.2,0.4,3.7,0.4,4.8
			c0,0.4-0.1,1.6-0.3,3.7L304.2,266z"/>
		<path fill="#1A1A1A" d="M387.2,266h-30.5l7.3-58.8h30.5l-1.4,10.8h-18.6l-1.6,13h18l-1.3,10.8h-18l-1.6,13.3h18.7L387.2,266z"/>
		<path fill="#1A1A1A" d="M399.5,251.6c4.4,2.6,8.4,3.8,11.9,3.8c4.3,0,7.3-2.5,7.3-6.3c0-1.4-0.4-2.6-1.2-3.4
			c-0.7-0.9-2.7-2.4-5.8-4.7c-5.5-3.9-8.9-6.9-10.3-8.8c-1.4-2-2.1-4.7-2.1-8c0-5.1,1.8-9.4,5.5-12.9c3.7-3.5,8.1-5.2,13.4-5.2
			c5.8,0,11.1,1.7,15.7,5.1l-5.3,10.5c-3.7-2.6-7.3-3.9-10.5-3.9c-3.7,0-6.2,2.1-6.2,5.3c0,1.3,0.4,2.5,1.2,3.4
			c0.9,0.9,2.8,2.3,5.8,4.2c4.8,2.9,8,5.6,9.7,8c1.7,2.4,2.6,5.5,2.6,9c0,5.5-1.9,10.1-5.8,13.9s-8.8,5.6-14.7,5.6
			c-2.9,0-5.5-0.4-7.9-1.1c-2.3-0.7-5.5-2.3-9.6-4.5L399.5,251.6z"/>
		<path fill="#1A1A1A" d="M127.4,336l7.3-58.8h13c7.6,0,12.9,1.2,16.1,3.5c3.1,2.3,4.7,5.9,4.7,10.9c0,7.2-3.5,11.7-10.5,13.7
			c9,1.9,12.2,5.5,12.2,13.3c0,3.4-0.8,6.3-2.3,9c-1.8,3.1-4.4,5.3-7.7,6.6c-3.3,1.2-8.4,1.9-15.4,1.9H127.4z M142.3,311l-1.9,15.1
			h5c5,0,8.3-0.9,9.9-2.7c1.3-1.4,2-3.3,2-5.7c0-5.1-2.7-6.7-10.8-6.7H142.3z M145.2,287.2l-1.8,14.6h2.9c7.8,0,10.6-2.7,10.6-8.3
			c0-4.7-2.2-6.3-8.7-6.3H145.2z"/>
		<path fill="#1A1A1A" d="M187.7,336H176l7.3-58.8h14.4c7.6,0,12.9,1.2,15.8,3.7c3.2,2.7,4.8,6.8,4.8,12.1c0,9.9-5.1,16.4-14.2,18
			l14.7,25h-13.7l-14.4-24.3L187.7,336z M193.7,288l-1.9,15.8h3.7c6.9,0,10.3-3.1,10.3-9.3c0-2.4-0.6-4.1-1.8-5
			c-1.2-1-3.3-1.5-6.2-1.5H193.7z"/>
		<path fill="#1A1A1A" d="M255.3,336h-30.5l7.3-58.8h30.5l-1.4,10.8h-18.6l-1.6,13h18l-1.3,10.8h-18l-1.6,13.3h18.7L255.3,336z"/>
		<path fill="#1A1A1A" d="M283.7,336h-11.8l5.9-48h-12.1l1.3-10.8h35.1l-1.4,10.8h-11.2L283.7,336z"/>
		<path fill="#1A1A1A" d="M321.8,336H310l5.9-48h-12.1l1.3-10.8h35.1l-1.4,10.8h-11.2L321.8,336z"/>
	</g>
</g>
<g display="none">
	<rect display="inline" fill="#1A1A1A" width="512" height="512"/>
	<rect x="77.5" y="275" display="inline" fill="#5EA318" width="32" height="32"/>
	<rect x="77.5" y="235" display="inline" fill="#5EA318" width="32" height="32"/>
	<rect x="117.5" y="235" display="inline" fill="#5EA318" width="32" height="32"/>
	<rect x="77.5" y="195" display="inline" fill="#5EA318" width="32" height="32"/>
	<rect x="117.5" y="195" display="inline" fill="#5EA318" width="32" height="32"/>
	<rect x="157.5" y="195" display="inline" fill="#5EA318" width="32" height="32"/>
	<rect x="77.5" y="155" display="inline" fill="#5EA318" width="32" height="32"/>
	<rect x="117.5" y="155" display="inline" fill="#5EA318" width="32" height="32"/>
	<rect x="157.5" y="155" display="inline" fill="#5EA318" width="32" height="32"/>
	<rect x="197.5" y="155" display="inline" fill="#5EA318" width="32" height="32"/>
	<g display="inline">
		<path fill="#FFFFFF" d="M154.2,246.2l1.4-10.8H184c-0.5,8.3-2.1,14.7-5,19.4c-4.8,7.7-13.7,12.4-23.4,12.4c-8.2,0-14.8-2.6-20-7.7
			c-5.1-5.2-7.7-12.1-7.7-20.7c0-9.4,2.9-17.3,8.7-23.5c5.9-6.2,13.2-9.3,22-9.3c10.7,0,18.6,4.6,23.6,13.9l-10.1,5.8
			c-3.5-5.3-8-8-13.5-8c-5.1,0-9.4,2-12.9,6.1c-3.5,4-5.2,8.9-5.2,14.7c0,5.1,1.5,9.1,4.4,12.3c2.9,3.1,6.7,4.7,11.4,4.7
			c7.3,0,11.5-3.1,13-9.3H154.2z"/>
		<path fill="#FFFFFF" d="M200.6,266h-11.8l7.3-58.8h14.4c7.6,0,12.9,1.2,15.8,3.7c3.2,2.7,4.8,6.8,4.8,12.1c0,9.9-5.1,16.4-14.2,18
			l14.7,25h-13.7l-14.4-24.3L200.6,266z M206.5,218l-2,15.8h3.7c6.9,0,10.3-3.1,10.3-9.3c0-2.4-0.6-4.1-1.8-5
			c-1.2-1-3.3-1.5-6.2-1.5H206.5z"/>
		<path fill="#FFFFFF" d="M243.3,207.2H255l-4,32.5c-0.4,3.1-0.6,5.4-0.6,6.9c0,5.9,3.3,8.9,9.9,8.9c4,0,6.8-1.1,8.5-3.4
			c1.8-2.3,3-6.5,3.8-12.7l3.9-32.2h11.8l-4.2,34.6c-1,8.5-2.8,14.4-5.2,17.6c-4,5.2-10.4,7.8-19.3,7.8c-13.7,0-21.1-6.1-21.1-17.3
			c0-2.3,0.2-5.4,0.7-9.4L243.3,207.2z M264.7,196c0.3,5.3-7,8.3-10.5,4.4c-1.2-1.3-1.8-2.8-1.8-4.4c0-1.6,0.6-3,1.8-4.4
			c2.6-2.4,6.3-2.4,8.7,0.1C264.1,193,264.7,194.4,264.7,196z M280,191.7c1.2,1.3,1.8,2.7,1.8,4.4c0,1.7-0.6,3.2-1.9,4.4
			c-1.2,1.2-2.7,1.8-4.3,1.8c-3.4,0-6.2-2.7-6.2-6.2c0-1.7,0.6-3.2,1.8-4.4c1.3-1.2,2.8-1.8,4.4-1.8
			C277.4,189.8,278.8,190.4,280,191.7z"/>
		<path fill="#FFFFFF" d="M304.2,266h-11.8l7.3-58.8h11.9l20.1,33.5c1.9,3,3.2,6.2,4.1,9.3l0.7-0.2c-0.2-1.5-0.3-3-0.3-4.5
			c0-1.5,0.2-3.4,0.4-5.9l4-32.1h11.8L345,266h-11.8l-19.6-32.2c-2.5-4.2-4.1-7.6-4.8-10.2l-0.6,0.1c0.2,2.2,0.4,3.7,0.4,4.8
			c0,0.4-0.1,1.6-0.3,3.7L304.2,266z"/>
		<path fill="#FFFFFF" d="M387.2,266h-30.5l7.3-58.8h30.5l-1.4,10.8h-18.6l-1.6,13h18l-1.3,10.8h-18l-1.6,13.3h18.7L387.2,266z"/>
		<path fill="#FFFFFF" d="M399.5,251.6c4.4,2.6,8.4,3.8,11.9,3.8c4.3,0,7.3-2.5,7.3-6.3c0-1.4-0.4-2.6-1.2-3.4
			c-0.7-0.9-2.7-2.4-5.8-4.7c-5.5-3.9-8.9-6.9-10.3-8.8c-1.4-2-2.1-4.7-2.1-8c0-5.1,1.8-9.4,5.5-12.9c3.7-3.5,8.1-5.2,13.4-5.2
			c5.8,0,11.1,1.7,15.7,5.1l-5.3,10.5c-3.7-2.6-7.3-3.9-10.5-3.9c-3.7,0-6.2,2.1-6.2,5.3c0,1.3,0.4,2.5,1.2,3.4
			c0.9,0.9,2.8,2.3,5.8,4.2c4.8,2.9,8,5.6,9.7,8c1.7,2.4,2.6,5.5,2.6,9c0,5.5-1.9,10.1-5.8,13.9s-8.8,5.6-14.7,5.6
			c-2.9,0-5.5-0.4-7.9-1.1c-2.3-0.7-5.5-2.3-9.6-4.5L399.5,251.6z"/>
		<path fill="#FFFFFF" d="M127.4,336l7.3-58.8h13c7.6,0,12.9,1.2,16.1,3.5c3.1,2.3,4.7,5.9,4.7,10.9c0,7.2-3.5,11.7-10.5,13.7
			c9,1.9,12.2,5.5,12.2,13.3c0,3.4-0.8,6.3-2.3,9c-1.8,3.1-4.4,5.3-7.7,6.6c-3.3,1.2-8.4,1.9-15.4,1.9H127.4z M142.3,311l-1.9,15.1
			h5c5,0,8.3-0.9,9.9-2.7c1.3-1.4,2-3.3,2-5.7c0-5.1-2.7-6.7-10.8-6.7H142.3z M145.2,287.2l-1.8,14.6h2.9c7.8,0,10.6-2.7,10.6-8.3
			c0-4.7-2.2-6.3-8.7-6.3H145.2z"/>
		<path fill="#FFFFFF" d="M187.7,336H176l7.3-58.8h14.4c7.6,0,12.9,1.2,15.8,3.7c3.2,2.7,4.8,6.8,4.8,12.1c0,9.9-5.1,16.4-14.2,18
			l14.7,25h-13.7l-14.4-24.3L187.7,336z M193.7,288l-1.9,15.8h3.7c6.9,0,10.3-3.1,10.3-9.3c0-2.4-0.6-4.1-1.8-5
			c-1.2-1-3.3-1.5-6.2-1.5H193.7z"/>
		<path fill="#FFFFFF" d="M255.3,336h-30.5l7.3-58.8h30.5l-1.4,10.8h-18.6l-1.6,13h18l-1.3,10.8h-18l-1.6,13.3h18.7L255.3,336z"/>
		<path fill="#FFFFFF" d="M283.7,336h-11.8l5.9-48h-12.1l1.3-10.8h35.1l-1.4,10.8h-11.2L283.7,336z"/>
		<path fill="#FFFFFF" d="M321.8,336H310l5.9-48h-12.1l1.3-10.8h35.1l-1.4,10.8h-11.2L321.8,336z"/>
	</g>
</g>
</svg>
