<?xml version="1.0" encoding="UTF-8" standalone="no"?>
<!-- Generator: Adobe Illustrator 16.0.0, SVG Export Plug-In . SVG Version: 6.00 Build 0)  -->

<svg
   xmlns:dc="http://purl.org/dc/elements/1.1/"
   xmlns:cc="http://creativecommons.org/ns#"
   xmlns:rdf="http://www.w3.org/1999/02/22-rdf-syntax-ns#"
   xmlns:svg="http://www.w3.org/2000/svg"
   xmlns="http://www.w3.org/2000/svg"
   xmlns:sodipodi="http://sodipodi.sourceforge.net/DTD/sodipodi-0.dtd"
   xmlns:inkscape="http://www.inkscape.org/namespaces/inkscape"
   version="1.1"
   id="Capa_1"
   x="0px"
   y="0px"
   width="75.324px"
   height="75.323px"
   viewBox="0 0 75.324 75.323"
   style="enable-background:new 0 0 75.324 75.323;"
   xml:space="preserve"
   sodipodi:docname="arrow-upward-to-rectangle-shape.svg"
   inkscape:version="0.92.5 (2060ec1f9f, 2020-04-08)"><metadata
   id="metadata41"><rdf:RDF><cc:Work
       rdf:about=""><dc:format>image/svg+xml</dc:format><dc:type
         rdf:resource="http://purl.org/dc/dcmitype/StillImage" /></cc:Work></rdf:RDF></metadata><defs
   id="defs39" /><sodipodi:namedview
   pagecolor="#ffffff"
   bordercolor="#666666"
   borderopacity="1"
   objecttolerance="10"
   gridtolerance="10"
   guidetolerance="10"
   inkscape:pageopacity="0"
   inkscape:pageshadow="2"
   inkscape:window-width="1114"
   inkscape:window-height="677"
   id="namedview37"
   showgrid="false"
   inkscape:zoom="8.8619521"
   inkscape:cx="43.182814"
   inkscape:cy="33.600801"
   inkscape:window-x="3023"
   inkscape:window-y="329"
   inkscape:window-maximized="0"
   inkscape:current-layer="Capa_1" />
<g
   id="g4"
   transform="matrix(0.54237898,0,0,0.54237898,17.598826,18.575725)"
   style="fill:#ffffff">
	<path
   d="m 58.46,47.26 c 0.146,0.19 0.22,0.418 0.22,0.646 0,0.225 -0.069,0.448 -0.213,0.638 -0.286,0.381 -0.792,0.521 -1.235,0.348 L 44.017,43.67 v 30.594 c 0,0.586 -0.475,1.06 -1.059,1.06 H 32.367 c -0.585,0 -1.059,-0.474 -1.059,-1.06 V 43.669 l -13.216,5.222 c -0.442,0.174 -0.948,0.031 -1.234,-0.349 -0.287,-0.38 -0.286,-0.905 0.006,-1.282 L 36.823,21.3 c 0.2,-0.261 0.51,-0.414 0.839,-0.414 0.329,0 0.64,0.153 0.839,0.414 z M 67.135,0 H 8.189 c -1.104,0 -2,0.896 -2,2 v 13.5 c 0,1.104 0.896,2 2,2 h 58.945 c 1.104,0 2,-0.896 2,-2 V 2 C 69.135,0.895 68.24,0 67.135,0 Z"
   id="path2"
   inkscape:connector-curvature="0"
   style="fill:#ffffff" />
</g>
<g
   id="g6">
</g>
<g
   id="g8">
</g>
<g
   id="g10">
</g>
<g
   id="g12">
</g>
<g
   id="g14">
</g>
<g
   id="g16">
</g>
<g
   id="g18">
</g>
<g
   id="g20">
</g>
<g
   id="g22">
</g>
<g
   id="g24">
</g>
<g
   id="g26">
</g>
<g
   id="g28">
</g>
<g
   id="g30">
</g>
<g
   id="g32">
</g>
<g
   id="g34">
</g>
</svg>